<?xml version="1.0" encoding="UTF-8"?>
<svg id="Capa_2" data-name="Capa 2" xmlns="http://www.w3.org/2000/svg" viewBox="0 0 716.61 208.71">
  <defs>
    <style>
      .cls-1 {
        letter-spacing: .13em;
      }

      .cls-1, .cls-2, .cls-3, .cls-4, .cls-5, .cls-6, .cls-7, .cls-8 {
        isolation: isolate;
      }

      .cls-1, .cls-2, .cls-4, .cls-5, .cls-6, .cls-7, .cls-8 {
        font-family: Barlow-MediumItalic, Barlow;
        font-size: 29.19px;
        font-style: italic;
        font-weight: 500;
      }

      .cls-9 {
        fill: #fff;
      }

      .cls-2 {
        letter-spacing: .13em;
      }

      .cls-4 {
        letter-spacing: .13em;
      }

      .cls-5 {
        letter-spacing: .11em;
      }

      .cls-6 {
        letter-spacing: .12em;
      }

      .cls-10 {
        fill: #18403e;
      }

      .cls-11 {
        fill: #472307;
      }

      .cls-7 {
        letter-spacing: .12em;
      }

      .cls-8 {
        letter-spacing: .09em;
      }
    </style>
  </defs>
  <g id="Capa_2-2" data-name="Capa 2">
    <circle class="cls-9" cx="104.36" cy="104.36" r="104.36"/>
    <g>
      <g>
        <path class="cls-9" d="M274.32,139.41c-22.15,0-35.81-10.61-37.47-29.09l-.35-3.88h23.54l.56,2.87c1.35,6.84,6.26,10.77,13.47,10.77,4.74,0,9.85-2.11,9.85-6.76,0-3.59-1.06-7.34-13.63-10.3-15.6-3.76-30.02-9.8-30.02-28.37,0-15.95,13.82-27.52,32.86-27.52s31.54,10.52,33.78,28.87l.49,3.99h-23.92l-.36-3.16c-.8-6.98-4.26-10.37-10.58-10.37-3.62,0-7.95,1.08-7.95,6.17,0,3.66,1.08,6.72,14.7,9.94,19.39,4.47,28.83,13.98,28.83,29.08,0,8.34-3.73,15.69-10.51,20.74-6.09,4.52-14.36,7.02-23.3,7.02h0Z"/>
        <path class="cls-9" d="M343.47,139.41c-11.06,0-20.34-3.65-26.83-10.56-6.19-6.59-9.46-15.64-9.46-26.2,0-22.34,14.25-36.77,36.29-36.77s36.29,14.44,36.29,36.77c0,10.56-3.27,19.62-9.46,26.2-6.5,6.91-15.78,10.56-26.83,10.56h.01ZM343.47,84.5c-11.03,0-12.22,12.69-12.22,18.15s1.2,18.15,12.22,18.15,12.22-12.69,12.22-18.15-1.2-18.15-12.22-18.15Z"/>
        <path class="cls-9" d="M383.33,137.75v-70.21h6.53c-4.5-1.78-7.36-5.93-7.36-11.27,0-7.08,5.29-12.22,12.57-12.22s12.57,5.14,12.57,12.22c0,5.34-2.85,9.49-7.36,11.27h6.53v70.21h-23.49,0Z"/>
        <path class="cls-9" d="M431.72,138.58c-13.54,0-16.76-7.86-17.07-14.48-.25-2.97-.25-6-.25-10.19V43.46h23.49v70.1c0,2.38,0,3.97.11,5.48.03.28.07.46.1.58.25.07.79.17,1.86.17.47,0,1.02-.02,1.63-.06l3.78-.24v18.24l-3.16.35c-3.09.35-6.32.49-10.48.49h0s0,0,0,0Z"/>
        <polygon class="cls-9" points="470.98 137.75 470.98 68.72 443.22 68.72 443.22 48.8 522.21 48.8 522.21 68.72 494.46 68.72 494.46 137.75 470.98 137.75"/>
        <path class="cls-9" d="M545.11,139.41c-9.87,0-18.29-3.18-24.36-9.2-6.49-6.43-9.92-15.88-9.92-27.33,0-21.79,14.64-37.01,35.58-37.01,10.18,0,18.72,3.71,24.73,10.75,5.4,6.33,8.36,15.11,8.36,24.71,0,1.62,0,3.63-.26,5.97l-.32,2.81h.48l-.94,4.32c-3.41,15.64-15.88,24.98-33.37,24.98h.01ZM534.92,110.47c1.72,9.05,6.45,10.32,10.54,10.32,5.36,0,8.88-2.8,9.65-7.67l.42-2.65h-20.62ZM554.89,92.68c-1.83-7.25-6.01-8.19-9.18-8.19-1.99,0-7.51,0-9.97,8.19h19.16,0Z"/>
        <path class="cls-9" d="M613.07,139.41c-9.77,0-18.08-3.19-24.05-9.24-6.31-6.4-9.64-15.74-9.64-27.05s3.57-20.7,10.32-27.46c6.31-6.31,15.11-9.79,24.78-9.79,17.95,0,30.96,11.13,32.37,27.69l.33,3.86h-23.01l-.5-2.97c-1.49-8.83-5.88-9.96-9.54-9.96-9.29,0-10.68,11-10.68,17.55,0,8.55,1.83,18.74,10.56,18.74,4.92,0,8.06-3.08,9.32-9.15l.59-2.83h23.5l-.73,4.17c-2.9,16.55-15.48,26.43-33.63,26.43h.01s0,.01,0,.01Z"/>
        <path class="cls-9" d="M693.13,137.75v-36.89c0-2.56,0-5.44-.23-8.51-.39-5.43-3.02-7.86-8.55-7.86-9.28.14-10.68,13.14-10.68,20.87v32.37h-23.49V42.86h23.49v27.54c4.7-3.12,9.84-4.52,16.48-4.52,14.93,0,24.39,7.58,25.95,20.81.37,3.28.49,6.5.49,11.92v39.14h-23.49.01Z"/>
      </g>
      <g>
        <g>
          <path class="cls-11" d="M303.38,76.43h-16.73c-.95-8.31-5.57-13.52-14.11-13.52-6.53,0-11.51,3.08-11.51,9.73s4.38,10.32,17.43,13.4c18.03,4.15,26.09,12.45,26.09,25.62,0,15.42-14.11,24.2-30.24,24.2-19.57,0-32.38-8.66-33.92-25.86h16.73c1.78,9.01,8.66,13.64,16.97,13.64,7.48,0,13.4-4.04,13.4-10.32,0-6.88-4.27-10.91-16.36-13.76-16.73-4.04-27.28-9.85-27.28-24.91s13.64-23.96,29.29-23.96c19.57,0,28.47,11.15,30.24,25.74h0Z"/>
          <path class="cls-11" d="M376.21,102.65c0,19.1-11.74,33.21-32.74,33.21s-32.74-14.11-32.74-33.21,11.74-33.21,32.74-33.21,32.74,13.99,32.74,33.21ZM359.25,102.65c0-13.64-5.93-21.71-15.78-21.71s-15.78,8.07-15.78,21.71,5.93,21.71,15.78,21.71,15.78-8.19,15.78-21.71Z"/>
          <path class="cls-11" d="M404.08,56.27c0,5.22-3.68,8.66-9.01,8.66s-9.01-3.44-9.01-8.66,3.68-8.66,9.01-8.66,9.01,3.56,9.01,8.66ZM386.88,134.2v-63.1h16.36v63.1h-16.36Z"/>
          <path class="cls-11" d="M434.33,113.56c0,2.49,0,4.15.12,5.81.36,3.2,1.78,4.27,7.36,3.92v11.27c-3.2.36-6.41.47-10.08.47-8.07,0-13.16-2.97-13.52-11.15-.24-2.85-.24-5.81-.24-9.96V47.03h16.36v66.54h0Z"/>
        </g>
        <g>
          <path class="cls-10" d="M490.9,65.17v69.03h-16.36v-69.03h-27.76v-12.81h71.88v12.81h-27.76Z"/>
          <path class="cls-10" d="M575.71,106.92h-44.84c1.07,13.28,7,17.43,14.59,17.43,7,0,12.1-3.92,13.16-10.68h16.36c-3.2,14.71-15.06,22.18-29.89,22.18-17.31,0-30.72-10.79-30.72-32.98,0-19.34,12.69-33.45,32.03-33.45s29.53,14.71,29.53,31.91c0,1.54,0,3.44-.24,5.57h0ZM531.35,96.24h27.76c-1.07-9.96-5.57-15.3-13.4-15.3s-12.93,4.86-14.35,15.3Z"/>
          <path class="cls-10" d="M643.31,93.87h-16.13c-1.54-9.13-6.29-12.93-13.05-12.93-8.31,0-14.23,6.76-14.23,21.11,0,15.66,5.93,22.3,14.11,22.3,6.41,0,11.15-4.04,12.81-11.98h16.36c-2.73,15.54-14.35,23.49-30.12,23.49-17.19,0-30.12-10.91-30.12-32.74s14.23-33.68,31.55-33.68,27.64,10.44,28.83,24.43h0Z"/>
          <path class="cls-10" d="M713.06,98.61v35.58h-16.36v-33.33c0-2.61,0-5.57-.24-8.78-.47-6.64-4.16-11.15-12.1-11.15-7.95.12-14.23,6.88-14.23,24.43v28.83h-16.36V46.41h16.36v34.87l4.86-7.48c4.5-3.2,9.13-4.38,15.18-4.38,13.4,0,21.11,6.64,22.42,17.67.36,3.2.47,6.41.47,11.51h0Z"/>
        </g>
      </g>
    </g>
    <g class="cls-3">
      <text class="cls-4" transform="translate(243.99 178.78) scale(1.08 1)"><tspan x="0" y="0">SOL</tspan></text>
      <text class="cls-6" transform="translate(310.42 178.78) scale(1.08 1)"><tspan x="0" y="0">U</tspan></text>
      <text class="cls-2" transform="translate(333.71 178.78) scale(1.08 1)"><tspan x="0" y="0">CIO</tspan></text>
      <text class="cls-7" transform="translate(391.28 178.78) scale(1.08 1)"><tspan x="0" y="0">N</tspan></text>
      <text class="cls-1" transform="translate(415.5 178.78) scale(1.08 1)"><tspan x="0" y="0">ES </tspan></text>
      <text class="cls-5" transform="translate(469.93 178.78) scale(1.08 1)"><tspan x="0" y="0">A</tspan></text>
      <text class="cls-1" transform="translate(492.73 178.78) scale(1.08 1)"><tspan x="0" y="0">GRONÓMI</tspan></text>
      <text class="cls-7" transform="translate(646.72 178.78) scale(1.08 1)"><tspan x="0" y="0">C</tspan></text>
      <text class="cls-8" transform="translate(669.1 178.78) scale(1.08 1)"><tspan x="0" y="0">A</tspan></text>
      <text class="cls-2" transform="translate(691.15 178.78) scale(1.08 1)"><tspan x="0" y="0">S</tspan></text>
    </g>
    <g>
      <g>
        <path class="cls-10" d="M104.36,2.65C48.18,2.65,2.65,47.53,2.65,102.91c0,1.55.03,3.07.11,4.6.36,7.81,1.63,15.4,3.69,22.65,1.25,4.09,3.26,4.99,7.8,3.51,21.59-7.34,50.62-12.22,82.98-13.25h0c2.76-.15,5.08-2.09,5.81-4.73.11-.37.29-1.18.29-1.18h.2c0-.12,0-.24,0-.35h0v-5.37s-.04-2.14-1.1-2.52l-4.77-2.4s-1.7-1.2-5.7.33c0,0-12.86,6.88-22.22.34,0,0-6.23-3.87-9.48-8.34-3.26-4.47-6.98-21.55-6.98-21.55,0,0,9.89-.48,12.87-1.35,0,0,.74-.2,4.26-.47,0,0,4.47-.47,10.29.74,0,0,10.7,1.74,14.35,12.88,0,0,1.96,6.34,1.83,12.55,0,0,.27,2.47,2.37,3.21l3.18,1.54s1.04,0,1.06-1.81v-12.55s1.05-8.62-5.8-12.95c0,0-6.43-3.94-10.77-9.62,0,0-5.23-8.1-.2-19.83,0,0,3.68-8.43,9.28-13.86,0,0,5.69-4.36,9.12-9.52,0,0,.99,3.56,7.86,9.52,0,0,5.78,5.08,9.76,13.53,0,0,5.33,9.03,1.08,19.76,0,0-2.97,5.7-10.38,10.33,0,0-6.62,3.47-6.6,12.91v12.28s-.44,3.11,1.63,1.79c0,0,3.26-1.87,4.51-3.92,0,0,.18-8.1,1.44-12.38,0,0,.99-7.48,10.29-11.49,0,0,6.77-2.67,14.27-2.76,0,0,5.87.35,10.47.98,0,0,2.53.86,7.59.48,0,0-1.27,2.55-1.36,5.39,0,0-.44,5.7-2.43,9.52,0,0-3.97,12.2-16.44,17.09,0,0-9.03,2.67-21.04-3.03,0,0-1.36-.53-2.79.09l-4.33,2.31s-1.83.62-1.81,3.04v4.66s-.02,1.43.4,3.06h0c1.08,2.04,3.17,3.43,5.58,3.44h0c31.17.21,59.74,3.97,82.27,10.11,5.23,1.22,6.63.82,8.12-3.9,1.84-7.55,2.81-15.41,2.81-23.51,0-55.37-45.53-100.26-101.71-100.26h-.02Z"/>
        <g>
          <path class="cls-11" d="M191.83,133.99h0c-22.65-6.03-51.32-9.64-82.5-9.64h-.32c-.56.1-.98.6-.98,1.19,0,.39.18.75.47.96h-.07l3.59,2.04h0v4.73l12.86,7.31,2.3,1.31,11.76,6.69v4.44c.91.16,1.6.94,1.6,1.89,0,1.06-.87,1.93-1.95,1.93s-1.95-.86-1.95-1.93c0-.94.68-1.72,1.6-1.89v-3.81l-11.49-6.53h-.01s0,10.77,0,10.77c.86.2,1.51.96,1.51,1.87,0,1.06-.87,1.93-1.95,1.93s-1.95-.86-1.95-1.93c0-.91.63-1.67,1.5-1.87v-10.31l-13.82-7.87v19.64l14.7,8.37h0s14.06,7.98,14.06,7.98l-.02.03h.02v3.87c.9.16,1.6.94,1.6,1.89,0,1.06-.87,1.93-1.95,1.93s-1.95-.86-1.95-1.93c0-.94.68-1.72,1.59-1.89v-3.28l-12.89-7.34v15.27c.86.2,1.5.96,1.5,1.86,0,.23-.04.44-.11.65h-.95c.14-.18.22-.4.22-.65,0-.6-.49-1.08-1.1-1.08s-1.1.48-1.1,1.08c0,.25.08.46.22.65h-.96c-.08-.2-.11-.42-.11-.65,0-.91.64-1.67,1.51-1.87v-14.79l-15.97-9.09-.04-.03v-25.25l-4.9-2.79v43.63c1.16.51,1.96,1.67,1.96,3.01,0,1.84-1.51,3.32-3.36,3.32s-3.37-1.48-3.37-3.32c0-1.38.84-2.55,2.05-3.05v-43.64l-4.99,2.85v25.23h0s-16.01,9.13-16.01,9.13v14.85c.86.2,1.51.96,1.51,1.88,0,.21-.03.4-.1.58h-.93c.11-.17.17-.37.17-.58,0-.6-.49-1.08-1.1-1.08s-1.1.48-1.1,1.08c0,.22.06.41.18.58h-.93c-.06-.18-.1-.37-.1-.58,0-.91.63-1.67,1.5-1.88v-15.32l-12.9,7.34v3.28c.9.16,1.59.94,1.59,1.89,0,1.06-.87,1.93-1.95,1.93s-1.95-.86-1.95-1.93c0-.94.69-1.72,1.6-1.89v-3.9h.01l14.04-8h0s14.71-8.36,14.71-8.36v-19.43l-13.83,7.88v10.09c.86.2,1.5.96,1.5,1.87,0,1.06-.87,1.93-1.95,1.93s-1.95-.86-1.95-1.93c0-.91.64-1.67,1.51-1.87v-10.55h-.01l-9.84,5.61v3.45c.91.17,1.59.94,1.59,1.89,0,1.06-.87,1.93-1.95,1.93s-1.95-.86-1.95-1.93c0-.94.68-1.72,1.6-1.89v-4.07h.02s10.1-5.75,10.1-5.75l3.94-2.24,11.23-6.4v-4.92h0l4.14-2.36h0c.13-.18.22-.41.22-.66,0-.53-.37-.97-.87-1.05-32.67.81-62.06,5.58-83.88,12.9-4.85,2-5.84,4.27-4.35,8.14,6.08,14.28,15.48,26.86,27.24,36.8,17.52,14.82,40.29,23.76,65.18,23.76s47.06-8.95,64.81-23.76c12.78-10.67,22.88-24.39,28.89-39.99,1.98-4.79.76-6.26-5.48-8.33h-.02Z"/>
          <path class="cls-11" d="M137.51,154.89c0,.6.49,1.08,1.1,1.08s1.1-.48,1.1-1.08-.49-1.08-1.1-1.08-1.1.48-1.1,1.08Z"/>
          <path class="cls-11" d="M125.19,155.16c0,.6.49,1.08,1.1,1.08s1.1-.48,1.1-1.08-.49-1.08-1.1-1.08-1.1.48-1.1,1.08Z"/>
          <path class="cls-11" d="M69.81,153.78c0,.6.49,1.08,1.1,1.08s1.1-.48,1.1-1.08-.49-1.08-1.1-1.08-1.1.48-1.1,1.08Z"/>
          <path class="cls-11" d="M80.55,155.18c0,.6.49,1.08,1.1,1.08s1.1-.48,1.1-1.08-.49-1.08-1.1-1.08-1.1.48-1.1,1.08Z"/>
          <path class="cls-11" d="M66.36,177.1c0,.6.49,1.08,1.1,1.08s1.1-.48,1.1-1.08-.49-1.08-1.1-1.08-1.1.48-1.1,1.08Z"/>
          <path class="cls-11" d="M139.31,177.04c0,.6.49,1.08,1.1,1.08s1.1-.48,1.1-1.08-.49-1.08-1.1-1.08-1.1.48-1.1,1.08Z"/>
          <path class="cls-11" d="M102.06,174.42c0,1.02.83,1.84,1.86,1.84s1.86-.82,1.86-1.84-.83-1.83-1.86-1.83-1.86.82-1.86,1.83Z"/>
        </g>
      </g>
      <path class="cls-10" d="M152.8,81.25c.04.25-.14.66-.37.8-.22.14-.21.15-.48.18-.27.04-.64-.11-.83-.35-.07-.09-.12-.25-.15-.3s-.06.02-.11.02c-1.25-.04-2.53-.04-3.79-.03-2.35,1.71-4.71,3.4-7.07,5.11,2.28-.06,4.56-.06,6.84-.01.04,0,.05.07.11,0s.17-.34.34-.42c.16-.08.22-.15.47-.17.24-.02.67.14.81.36.13.22.14.21.18.46s-.15.66-.37.8-.2.14-.48.18-.62-.11-.84-.35c-.08-.08-.04-.23-.15-.28-.11-.05.22.02-.1,0s.84.01-.29,0c-1.12,0-5.3.03-7.03.03-.06,0-.19-.02-.2-.06-3.02,2.15-6.08,4.2-9.19,6.22,2.27.16,4.54.28,6.81.31.03,0,0,.06.06-.01.05-.08.19-.33.35-.41.16-.08.22-.14.46-.16s.67.16.8.39.13.21.16.47-.17.66-.4.79c-.23.13-.21.14-.49.16s-.61-.13-.82-.39c-.06-.08-.03-.21-.13-.27s.25.02-.06-.01.83.05-.29-.01-5.28-.25-7.01-.33c-.06,0-.19-.03-.2-.07-7.52,4.85-15.91,8.37-23.82,12.51,0,.03.06.36.06.39-.04.36.08.58-.31.58s-.27-.25-.31-.61c0-.04.06-.31.06-.35-7.46-4.12-15.43-7.69-22.63-12.27-.06.04-.08.06-.16.07-2.4.16-4.81.41-7.22.48h-.04s0,0,0,0c-.07.07-.07.19-.12.27-.17.27-.53.42-.8.41s-.25-.03-.48-.16c-.23-.13-.42-.52-.4-.78s.03-.25.16-.47c.13-.23.56-.4.8-.39s.29.07.46.14c.16.07.3.33.35.4s.03,0,.06,0c2.25-.05,4.48-.23,6.72-.44-3.02-1.92-6-3.87-8.97-5.88,0,.04-.13.07-.19.07-1.7.04-5.79.21-6.89.27s.02-.02-.29.01.01-.05-.09,0c-.11.06-.08.2-.15.28-.2.25-.54.41-.81.37-.27-.03-.25-.04-.48-.16-.23-.13-.42-.53-.39-.79s.04-.24.16-.46.56-.39.8-.37c.24.02.3.08.46.16.16.08.29.34.34.41.06.07.06,0,.1,0,2.23-.13,4.47-.2,6.7-.25-2.35-1.6-4.61-3.18-7.03-4.76,0,0,.37-.01-.13,0-.51.02-2.75.11-3.6.18-.03,0-.11-.05-.13,0-.02.04-.08.22-.14.3-.18.24-.54.41-.82.38-.27-.03-.25-.04-.48-.16-.23-.13-.42-.53-.39-.78s.04-.23.16-.46.56-.4.8-.38c.25.03.29.06.46.16s.26.29.36.42c.03.03.06-.04.12-.04.99-.04,2-.1,3-.14-.68-.44-1.35-.89-2.03-1.34-.29.23-.74.36-1.07.33s-.53-.1-.76-.26c-.48-.34-.7-.8-.68-1.36,0-.27.1-.51.27-.72.34-.46.83-.68,1.41-.65.28.01.52.1.75.26.57.42.77.99.61,1.67,1.38.91,2.77,1.83,4.14,2.76-.32-.94-.62-1.89-.97-2.83,0-.02.02-.03-.01-.04s0,.02-.1,0c-.11-.03-.26-.04-.44-.16s-.42-.52-.38-.77.04-.25.17-.46.56-.41.8-.38.32.05.46.16c.44.33.49.78.25,1.24-.05.09-.16.17-.2.21-.03.04,0,.03.01.04.41,1.18.81,2.36,1.2,3.54,2.33,1.55,4.68,3.22,6.98,4.71-.51-1.46-1.71-5.04-2.05-6.02-.29-.84-.04-.15-.06-.2-.15-.24,0,0-.14-.07s-.25-.03-.44-.17c-.19-.15-.42-.53-.38-.78s.04-.24.16-.46c.13-.22.57-.4.8-.37s.31.05.45.15c.44.32.49.79.26,1.24-.05.1-.16.16-.19.2s0,.02,0,.03c.44,2.35,1.39,4.56,2.3,6.76.04.09.01.13,0,.2,2.97,1.99,5.99,3.9,9,5.82-.9-2.02-1.79-4.07-2.3-6.23,0-.01.02,0-.01-.01-.03,0,.02.02-.09,0s-.25-.03-.44-.16-.44-.52-.4-.77.03-.24.16-.46c.13-.22.55-.42.79-.39.23.03.32.04.46.15.44.32.51.77.28,1.24-.05.1-.18.11-.2.22,0,.01,0,0,0,0,.8,2.22,1.63,4.45,2.45,6.65.04.1.02.13,0,.21,6.33,4,13.46,7.75,20.01,11.36-.03-10.67-.33-21.88-.36-32.53-.11-.04-.16-.04-.25-.15-2.07-2.67-4.04-5.45-6.25-8.02,0,0,.04-.02-.03,0-.07.01-.26.08-.41.06-.73-.07-1.25-.53-1.29-1.27-.02-.37.13-.66.37-.91.24-.25.56-.37.92-.38.35,0,.67.13.91.37.25.23.37.58.39.89.01.31-.09.49-.22.74h.01c2.04,2.45,3.94,4.99,5.84,7.53-.02-5.03-.05-10.07-.06-15.09-.11-.04-.16-.04-.25-.15-2.06-2.69-4.02-5.48-6.22-8.07,0,0,.04-.03-.03-.02-.07.01-.25.07-.39.06-.73-.08-1.25-.54-1.29-1.28-.02-.37.13-.65.37-.91.24-.25.56-.37.92-.38.35,0,.66.13.91.37.25.23.37.58.38.9s-.1.51-.23.75c0,0,0,0,.01.01,2.03,2.44,3.92,5,5.81,7.55,0-3.96-.01-7.93,0-11.89-1.1-1.39-2.19-2.8-3.26-4.22-.02-.03.03-.06-.05-.06-.08,0-.27.08-.42.06-.72-.08-1.24-.54-1.27-1.27-.02-.37.13-.65.37-.9s.56-.37.91-.37c.35,0,.67.14.92.37s.37.58.38.89c.01.31-.11.5-.22.75-.01.02.03.02.04.04.84,1.14,1.72,2.27,2.6,3.39,0-2.33,0-4.65,0-6.98-.93-.37-1.5-1.06-1.53-2.06-.02-.61.22-1.1.63-1.52s.95-.63,1.54-.63c.59,0,1.12.22,1.55.63.42.41.62.95.64,1.51s-.29,1.15-.62,1.51-.54.39-.93.56v3.4c.85-1.12,1.73-2.22,2.56-3.34.05-.06.15-.05.13-.11-.08-.24-.25-.44-.22-.75.02-.32.13-.66.38-.89s.56-.37.92-.37.67.13.92.37c.25.25.37.55.38.91.01.35-.16.65-.37.9-.22.25-.65.35-.89.38s-.39-.09-.49-.08-.03.09-.08.15c-1.12,1.36-2.16,2.78-3.23,4.18,0,3.96,0,7.91,0,11.88,1.94-2.48,3.9-4.97,5.75-7.51.04-.05.11-.05.09-.09-.1-.25-.24-.44-.22-.75s.13-.66.38-.9c.25-.23.56-.37.92-.37s.67.13.92.37c.25.25.37.56.38.91.01.35-.16.65-.37.91s-.66.35-.89.38c-.23.03-.35-.07-.46-.07s-.04.06-.08.11c-2.01,2.72-4.08,5.43-6.2,8.07-.08.1-.12.1-.22.15,0,5.02.03,10.04.05,15.06,1.94-2.48,3.88-4.98,5.73-7.52.02-.03.06-.03.04-.05-.12-.25-.23-.44-.23-.75.01-.31.13-.66.38-.89s.56-.38.91-.37c.35,0,.67.13.92.37.25.25.38.55.39.9s-.13.65-.37.91c-.24.25-.58.35-.91.38-.14.01-.35-.06-.42-.06-.07,0-.03.03-.04.06-2,2.74-4.06,5.44-6.17,8.09-.08.1-.12.1-.22.15.04,11.85-.32,24.21-.39,36.06,6.98-3.6,14.5-7.31,21.13-11.55-.01-.08-.03-.12,0-.21.88-2.22,1.72-4.49,2.53-6.75,0,0,0,0,0,0-.02-.11-.15-.13-.2-.22-.25-.46-.17-.92.27-1.24.15-.11.23-.13.47-.16.24-.03.67.16.8.38.13.22.12.21.16.46.04.25-.21.66-.4.79-.19.13-.32.15-.44.16s-.04-.03-.11,0c-.01,0,0,0,0,0-.77,2.11-1.57,4.21-2.36,6.32,3.09-2,6.2-3.98,9.21-6.09-.02-.08-.04-.12,0-.21.9-2.27,1.91-4.54,2.34-6.95,0,0,.01,0,.01-.01,0-.11-.15-.11-.2-.2-.26-.46-.2-.91.23-1.26.14-.11.22-.13.46-.16s.67.14.81.36c.14.22.13.2.18.45s-.19.67-.37.8c-.18.14-.34.16-.44.18s-.08,0-.11,0c-.04,0-.01,0-.01.01-.45,2.24-1.29,4.4-2.18,6.5,2.38-1.69,4.74-3.4,7.1-5.11.37-1.21.75-2.43,1.13-3.64,0-.02.04,0,.01-.04s-.16-.11-.21-.21c-.25-.46-.21-.92.22-1.27.15-.11.22-.14.46-.18s.67.13.81.35.13.21.18.47c.05.25-.18.67-.35.81s-.34.16-.44.19-.07,0-.1.01,0,.03,0,.04c-.32.96-.61,1.93-.91,2.9,1.36-1,2.72-2,4.1-2.98-.17-.68.01-1.25.57-1.69.22-.17.46-.25.74-.27.57-.04,1.07.16,1.43.61.17.22.27.44.29.72.04.56-.17,1.03-.64,1.37-.23.16-.43.25-.76.29-.33.04-.79-.07-1.08-.29-.67.48-1.33.96-2,1.43,1,0,2.02.03,3.02.03.06,0,.1.06.12.03.1-.14.18-.34.35-.44s.22-.14.46-.17c.25-.03.68.13.82.35s.15.21.18.46h-.03Z"/>
    </g>
  </g>
</svg>